<svg id="Layer_1" data-name="Layer 1" xmlns="http://www.w3.org/2000/svg" viewBox="0 0 167.33 167.33"><title>360btn</title><path d="M169.24,669.32c0,46.92-13.71,83.67-31.22,83.67-15.39,0-28-28.12-30.72-68.38a2.11,2.11,0,0,1,4.21-.28c2.46,36.74,13.86,64.44,26.51,64.44,13,0,27-31.92,27-79.45s-14-79.44-27-79.44c-6.51,0-13.14,7.77-18.18,21.34-4.55,12.22-7.49,28.06-8.46,45.3h5.5l-7.95,13.8L101,656.52h6.16c2.23-41,15-70.86,30.87-70.86C155.53,585.66,169.24,622.41,169.24,669.32Z" transform="translate(-46.42 -585.66)" fill="#929497"/><path d="M213.75,646.69c0,17.5-36.74,31.22-83.66,31.22s-83.67-13.72-83.67-31.22c0-14,22.89-25.71,58.3-29.8a2.11,2.11,0,0,1,.49,4.19c-32.13,3.71-54.57,14.24-54.57,25.61,0,13,31.93,27,79.45,27s79.45-14,79.45-27c0-6.55-7.78-13.1-21.17-18.12l-1.91,6L175.72,622.8l15.56-3.38-1.63,5.13C205.08,630.3,213.75,638.18,213.75,646.69Z" transform="translate(-46.42 -585.66)" fill="#929497"/><path d="M53,605.74l2.51-.33A5.56,5.56,0,0,0,57,608.48a3.61,3.61,0,0,0,2.53.94,4,4,0,0,0,3-1.23,4.1,4.1,0,0,0,1.22-3,3.83,3.83,0,0,0-4-4,7.07,7.07,0,0,0-1.78.28l.29-2.2.4,0a5.17,5.17,0,0,0,2.89-.84,2.88,2.88,0,0,0,1.28-2.58,3,3,0,0,0-.94-2.29,3.32,3.32,0,0,0-2.41-.9,3.42,3.42,0,0,0-2.44.92,4.57,4.57,0,0,0-1.25,2.76l-2.51-.45A6.44,6.44,0,0,1,55.34,592a6.08,6.08,0,0,1,4.06-1.39,6.65,6.65,0,0,1,3.08.72,5.25,5.25,0,0,1,2.15,2,4.94,4.94,0,0,1,.75,2.63,4.31,4.31,0,0,1-.71,2.41,4.87,4.87,0,0,1-2.1,1.74,4.7,4.7,0,0,1,2.81,1.73,5.29,5.29,0,0,1,1,3.3,6,6,0,0,1-2,4.54,6.87,6.87,0,0,1-4.93,1.86A6.4,6.4,0,0,1,55,609.89,6.12,6.12,0,0,1,53,605.74Z" transform="translate(-46.42 -585.66)" fill="#929497"/><path d="M81.89,595.7l-2.5.2a4.69,4.69,0,0,0-.94-2.15,3.35,3.35,0,0,0-2.52-1.07,3.46,3.46,0,0,0-2.1.66A5.78,5.78,0,0,0,72,595.87a13.12,13.12,0,0,0-.71,4.72,5.93,5.93,0,0,1,2.22-2.05,6,6,0,0,1,2.75-.66,5.67,5.67,0,0,1,4.27,1.85,6.62,6.62,0,0,1,1.76,4.76,8,8,0,0,1-.83,3.59,6,6,0,0,1-2.28,2.52,6.19,6.19,0,0,1-3.29.89,6.42,6.42,0,0,1-5.11-2.31c-1.33-1.54-2-4.07-2-7.61,0-4,.72-6.82,2.19-8.62a6.28,6.28,0,0,1,5.14-2.34,5.47,5.47,0,0,1,5.8,5.09Zm-10.25,8.81a5.72,5.72,0,0,0,.55,2.48,4,4,0,0,0,1.55,1.81,3.76,3.76,0,0,0,2.07.62,3.55,3.55,0,0,0,2.73-1.28,5.08,5.08,0,0,0,1.15-3.49,4.7,4.7,0,0,0-1.13-3.33,3.7,3.7,0,0,0-2.85-1.22,3.86,3.86,0,0,0-2.89,1.22A4.35,4.35,0,0,0,71.64,604.51Z" transform="translate(-46.42 -585.66)" fill="#929497"/><path d="M84.75,601.06a18.66,18.66,0,0,1,.75-5.84,7.22,7.22,0,0,1,2.21-3.41,5.67,5.67,0,0,1,3.7-1.2,5.89,5.89,0,0,1,2.88.67,5.51,5.51,0,0,1,2.06,1.9,10.62,10.62,0,0,1,1.27,3,20.65,20.65,0,0,1,.46,4.84,18.8,18.8,0,0,1-.74,5.8,7.27,7.27,0,0,1-2.22,3.42,5.65,5.65,0,0,1-3.71,1.21,5.59,5.59,0,0,1-4.64-2.13Q84.75,606.82,84.75,601.06Zm2.57,0q0,5,1.19,6.69a3.36,3.36,0,0,0,5.81,0q1.17-1.66,1.17-6.68t-1.17-6.71a3.5,3.5,0,0,0-2.94-1.66,3.23,3.23,0,0,0-2.76,1.46C87.76,595.4,87.32,597.7,87.32,601.06Z" transform="translate(-46.42 -585.66)" fill="#929497"/><path d="M101.7,592.48a2.35,2.35,0,0,1,.75-1.75,2.45,2.45,0,0,1,3.53,0,2.49,2.49,0,0,1,.74,1.81,2.46,2.46,0,0,1-.74,1.81,2.48,2.48,0,0,1-3.54,0A2.54,2.54,0,0,1,101.7,592.48Zm1.06,0a1.57,1.57,0,0,0,.43,1.1,1.48,1.48,0,0,0,1,.45,1.46,1.46,0,0,0,1-.45,1.5,1.5,0,0,0,.44-1.08,1.48,1.48,0,0,0-.44-1.07,1.41,1.41,0,0,0-1-.45,1.47,1.47,0,0,0-1,.44A1.51,1.51,0,0,0,102.76,592.5Z" transform="translate(-46.42 -585.66)" fill="#929497"/></svg>