<svg id="Layer_1" data-name="Layer 1" xmlns="http://www.w3.org/2000/svg" viewBox="0 0 163.15 226.68"><title>men</title><path d="M147.79,862.29A44.93,44.93,0,0,1,103,820.14a11.9,11.9,0,0,1-9.69-11.68v-9.21a11.89,11.89,0,0,1,11.88-11.88h.5a3,3,0,0,1,0,6h-.5a5.89,5.89,0,0,0-5.88,5.88v9.21a5.89,5.89,0,0,0,5.88,5.89h.72a3,3,0,0,1,3,3,38.88,38.88,0,1,0,77.76.09,3.05,3.05,0,0,1,3-3.06h.72a5.89,5.89,0,0,0,5.88-5.89v-9.21a5.89,5.89,0,0,0-5.88-5.88h-.49a3,3,0,1,1,0-6h.49a11.89,11.89,0,0,1,11.88,11.88v9.21a11.9,11.9,0,0,1-9.68,11.68A45,45,0,0,1,147.79,862.29Z" transform="translate(-66.22 -727.4)" fill="#e74c3c"/><path d="M229.37,954.08H66.22v-34a44.6,44.6,0,0,1,44.55-44.55h10.59V854.82a3,3,0,0,1,6,0v26.75H110.77a38.59,38.59,0,0,0-38.55,38.55v28H223.37v-28a38.59,38.59,0,0,0-38.55-38.55H168.23V854.82a3,3,0,1,1,6,0v20.75h10.59a44.6,44.6,0,0,1,44.55,44.55Z" transform="translate(-66.22 -727.4)" fill="#e74c3c"/><path d="M190.33,793a3,3,0,0,1-3-3V779.2c0-13.68-4.29-25.22-11.76-31.68A3,3,0,0,1,179.5,743c8.79,7.6,13.83,20.8,13.83,36.22V790A3,3,0,0,1,190.33,793Z" transform="translate(-66.22 -727.4)" fill="#e74c3c"/><path d="M189.56,793.34a3,3,0,0,1-2.9-2.23,40.46,40.46,0,0,0-39.1-30,40.45,40.45,0,0,0-39.1,30,3,3,0,1,1-5.8-1.54,46.49,46.49,0,0,1,37.1-33.77,47.19,47.19,0,0,1,7.8-.65,46.47,46.47,0,0,1,44.9,34.42,3,3,0,0,1-2.13,3.67A3,3,0,0,1,189.56,793.34Z" transform="translate(-66.22 -727.4)" fill="#e74c3c"/><path d="M105.57,793a3,3,0,0,1-3-3V779.2A45.56,45.56,0,0,1,125.12,740c1.62-1,20.6-11.73,21.4-12.19a3,3,0,0,1,4.29,3.68l-1.94,5.1,10.1-3.72a3,3,0,0,1,3.84,3.88l-1.06,2.8,10.11-3.72a3,3,0,0,1,3.83,3.88l-1.06,2.8.76-.28a3,3,0,0,1,2.07,5.63l-7,2.56a3,3,0,0,1-3.84-3.89l1.07-2.79-10.11,3.72a3,3,0,0,1-3.84-3.89l1.07-2.8-10.11,3.72a3,3,0,0,1-3.84-3.88l1.32-3.45-14.09,8a39.56,39.56,0,0,0-19.57,34V790A3,3,0,0,1,105.57,793Z" transform="translate(-66.22 -727.4)" fill="#e74c3c"/><path d="M155.66,837.07H139.93a3,3,0,1,1,0-6h15.73a3,3,0,0,1,0,6Z" transform="translate(-66.22 -727.4)" fill="#e74c3c"/><path d="M174.63,911.62H121a7.72,7.72,0,0,1-7.71-7.71V878.48a3,3,0,0,1,6,0v25.43a1.71,1.71,0,0,0,1.71,1.71h53.67a1.72,1.72,0,0,0,1.71-1.71V879.42a3,3,0,0,1,6,0v24.49A7.72,7.72,0,0,1,174.63,911.62Z" transform="translate(-66.22 -727.4)" fill="#e74c3c"/></svg>