<svg id="Layer_2" data-name="Layer 2" xmlns="http://www.w3.org/2000/svg" viewBox="0 0 136.33 81.13"><title>Vector Smart Object1</title><path d="M1050.12,489.35a1.91,1.91,0,0,0-1.9,1.91v5.84a1.91,1.91,0,0,0,3.81,0v-5.84A1.92,1.92,0,0,0,1050.12,489.35Z" transform="translate(-982.11 -441.67)" fill="#fff"/><path d="M1058.59,489.35a1.92,1.92,0,0,0-1.91,1.91v5.84a1.91,1.91,0,0,0,3.81,0v-5.84A1.91,1.91,0,0,0,1058.59,489.35Z" transform="translate(-982.11 -441.67)" fill="#fff"/><path d="M1097.75,481.41a20.69,20.69,0,1,0,20.69,20.69A20.72,20.72,0,0,0,1097.75,481.41Zm0,37.57a16.88,16.88,0,1,1,16.88-16.88A16.9,16.9,0,0,1,1097.75,519Z" transform="translate(-982.11 -441.67)" fill="#fff"/><path d="M1097.75,491.51a10.6,10.6,0,1,0,10.59,10.59A10.6,10.6,0,0,0,1097.75,491.51Zm0,17.38a6.79,6.79,0,1,1,6.78-6.79A6.8,6.8,0,0,1,1097.75,508.89Z" transform="translate(-982.11 -441.67)" fill="#fff"/><path d="M1072.4,502.1a25.38,25.38,0,0,1,25.35-25.35,25.89,25.89,0,0,1,3,.18l.23,0a1.87,1.87,0,0,0,1-.27,37.17,37.17,0,0,0,7.1-5.44,1.9,1.9,0,0,0,.25-2.42c-7.66-11.38-9.58-13.32-9.89-13.59a1.9,1.9,0,0,0-1.26-.48h-3.68l-.06-.07c-8.92-9.84-15.66-12.75-15.94-12.87a1.92,1.92,0,0,0-.74-.15h-5.61a1.91,1.91,0,0,0-1.78,2.59l4.74,12.29-3.47,6.72-2.36-2.61a1.92,1.92,0,0,0-1.42-.63h-12.6c-3.67,0-6.8,2-9.3,6l-.06.1h-13.17l-1.86-4.21a1.92,1.92,0,0,0-1.74-1.13h-9.79l0-.16c-3-11.13-11.44-12-14-12a10.5,10.5,0,0,0-1.28.07,1.91,1.91,0,0,0-1.57,2.34l1.82,7.5h-8.85a10,10,0,0,0-9.95,9.95v1.16h-1a1.91,1.91,0,1,0,0,3.81h1v1.17a10,10,0,0,0,5.27,8.77l.24.13-8.37,9a1.88,1.88,0,0,0-.51,1.3v8.3A1.91,1.91,0,0,0,984,504h7l0,.19a20.69,20.69,0,0,0,40.25,4.32l.16-.47,2.8,5.22a1.89,1.89,0,0,0,1.68,1h36.57a1.9,1.9,0,0,0,1.77-2.62A25.23,25.23,0,0,1,1072.4,502.1Zm2.49-56.62h2.41l0,0c1.21.6,5.63,3,11.52,8.89l.36.36h-10.76Zm-28.74,29.84c1.16-4.28,3.89-11.47,9.07-11.47H1067l2.76,3-4.49,8.7h-19.17Zm-39.09-22.71c3.19.58,7.31,2.86,8.86,10.47a1.92,1.92,0,0,0,1.87,1.52h10.06l1.86,4.2a1.89,1.89,0,0,0,1.74,1.14h12.48l-.12.29a36.21,36.21,0,0,0-1.63,5.2l0,.16h-29.8l-5.6-23Zm-17.77,22v-1.17h3.28a1.91,1.91,0,1,0,0-3.81h-3.28V468.5a6.14,6.14,0,0,1,6.14-6.14h9.77l3.21,13.23h-9.17a1.91,1.91,0,0,0-1.39.6l-4.07,4.36-.13,0A6.18,6.18,0,0,1,989.29,474.64Zm39.08,29.6a16.88,16.88,0,0,1-33.48,0l0-.23h6.34l0,.17a10.6,10.6,0,0,0,20.78,0l0-.17h6.35Zm-23.26-.23h13l-.09.28a6.78,6.78,0,0,1-12.84,0Zm-19.19-3.81v-5.65l14.15-15.15h28.28l.06.06a31.67,31.67,0,0,1,5.73,8.13l.15.3h-20.84a1.91,1.91,0,0,0,0,3.81h22.35l0,.15a31.56,31.56,0,0,1,1.45,8.12v.23Zm51.15,10.26L1033.6,504h5.61a1.91,1.91,0,0,0,1.9-1.87s0-.55,0-.71a34.88,34.88,0,0,0-7.44-21.69l-.26-.34h33a1.92,1.92,0,0,0,1.7-1l10.2-19.8h19l.07.07c.59.72,1.72,2.17,3.72,5l.24.33h-7.4a1.91,1.91,0,1,0,0,3.81h10l.06.1c.35.5.71,1,1.08,1.58l.11.16-.14.12a33.8,33.8,0,0,1-4.49,3.32l-.06,0h-.07c-.92-.09-1.84-.13-2.71-.13a29.17,29.17,0,0,0-28,37.25l.08.27Z" transform="translate(-982.11 -441.67)" fill="#fff"/></svg>