<svg id="Layer_1" data-name="Layer 1" xmlns="http://www.w3.org/2000/svg" viewBox="0 0 167.87 221.6"><title>women</title><path d="M932.73,284.6H764.86V249.7a46,46,0,0,1,22.86-39.65,3,3,0,0,1,3,5.19,40,40,0,0,0-19.87,34.46v28.9H926.73V249.7a39.84,39.84,0,0,0-39.8-39.8H865.08V189.44a3,3,0,1,1,6,0V203.9h15.85a45.84,45.84,0,0,1,45.8,45.8Z" transform="translate(-764.86 -63)" fill="#e74c3c"/><path d="M829.5,209.9a3,3,0,0,1-3-3V189.44a3,3,0,0,1,6,0V206.9A3,3,0,0,1,829.5,209.9Z" transform="translate(-764.86 -63)" fill="#e74c3c"/><path d="M855.64,178.34h-13.7a3,3,0,0,1,0-6h13.7a3,3,0,0,1,0,6Z" transform="translate(-764.86 -63)" fill="#e74c3c"/><path d="M789.57,242.67a3,3,0,0,1-3-3V125a62.07,62.07,0,0,1,62-62h4.67a62.07,62.07,0,0,1,62,62v88.67a3,3,0,1,1-6,0V125a56.06,56.06,0,0,0-56-56h-4.67a56.06,56.06,0,0,0-56,56V239.67A3,3,0,0,1,789.57,242.67Z" transform="translate(-764.86 -63)" fill="#e74c3c"/><path d="M847,197.37c-10.34-.41-19.88-6.31-27.82-17.28-4.79-6.62-5.76-12.84-5.79-20.74,0-.11-.09-28.35-.1-34v-3h3c34.44,0,36.63-21,36.7-21.9l.24-2.74,2.76,0c17.62,0,32,13.45,32,30l0,29.66c.06,9.95-4.89,17.23-10.4,24.41-7.3,9.5-15.91,14.83-25.18,15.65C851.5,197.47,847.9,197.46,847,197.37Zm5-6c7.54-.71,14.51-5.17,20.76-13.31,5-6.57,9.2-12.66,9.16-20.74l0-29.68c0-12.48-10.35-22.77-23.54-23.9-1.82,6.83-9.32,23.46-39.11,24.51,0,8.22.09,30.76.09,31,0,6.89.79,11.92,4.65,17.26,6.78,9.35,14.42,14.31,22.76,14.77C846.91,191.34,851.68,191.29,852,191.4Z" transform="translate(-764.86 -63)" fill="#e74c3c"/><path d="M769.9,262a3,3,0,0,1,0-6c9.19,0,16.67-7.18,16.67-16a3,3,0,0,1,6,0C792.57,252.13,782.4,262,769.9,262Z" transform="translate(-764.86 -63)" fill="#e74c3c"/><path d="M810.4,262.5H769.24a3,3,0,0,1,0-6H810.4a16,16,0,0,0,16-16,3,3,0,0,1,6,0A22,22,0,0,1,810.4,262.5Z" transform="translate(-764.86 -63)" fill="#e74c3c"/><path d="M829.4,243.17a3,3,0,0,1-3-3V206.83a3,3,0,0,1,6,0v33.34A3,3,0,0,1,829.4,243.17Z" transform="translate(-764.86 -63)" fill="#e74c3c"/><path d="M848.79,233.83a35.69,35.69,0,0,1-21.14-7.11,3,3,0,0,1,3.54-4.84,29.81,29.81,0,0,0,17.6,6c12.36,0,24-8.36,30.32-21.81a3,3,0,1,1,5.43,2.56C877.2,224.16,863.5,233.83,848.79,233.83Z" transform="translate(-764.86 -63)" fill="#e74c3c"/></svg>