<svg id="Layer_2" data-name="Layer 2" xmlns="http://www.w3.org/2000/svg" viewBox="0 0 123.81 82.58"><title>xe-ga</title><path d="M281.15,487.47a17.66,17.66,0,1,0,17.66,17.66A17.68,17.68,0,0,0,281.15,487.47Zm0,31.51A13.85,13.85,0,1,1,295,505.13,13.86,13.86,0,0,1,281.15,519Z" transform="translate(-175 -440.22)" fill="#fff"/><path d="M281.15,495.94a9.2,9.2,0,1,0,9.19,9.19A9.2,9.2,0,0,0,281.15,495.94Zm0,14.58a5.39,5.39,0,1,1,5.38-5.39A5.39,5.39,0,0,1,281.15,510.52Z" transform="translate(-175 -440.22)" fill="#fff"/><path d="M198.91,486.37a1.91,1.91,0,0,0-1.91,1.9v6.2a1.91,1.91,0,0,0,3.81,0v-6.2A1.9,1.9,0,0,0,198.91,486.37Z" transform="translate(-175 -440.22)" fill="#fff"/><path d="M207.38,486.37a1.9,1.9,0,0,0-1.91,1.9v6.2a1.91,1.91,0,0,0,3.81,0v-6.2A1.9,1.9,0,0,0,207.38,486.37Z" transform="translate(-175 -440.22)" fill="#fff"/><path d="M215.84,486.37a1.9,1.9,0,0,0-1.9,1.9v6.2a1.91,1.91,0,0,0,3.81,0v-6.2A1.91,1.91,0,0,0,215.84,486.37Z" transform="translate(-175 -440.22)" fill="#fff"/><path d="M281.15,482.81a1.89,1.89,0,0,0,1.53-.77,1.87,1.87,0,0,0,.29-1.68c-1-3.32-3.06-9.11-6-16.76l-.11-.29h4.92a1.9,1.9,0,0,0,1.9-1.9V446.83a1.91,1.91,0,0,0-1.9-1.91h-4.65a9.15,9.15,0,0,0-8.95,7.13l0,.16H265.3v-2a10,10,0,0,0-10-9.94h-8.59a1.91,1.91,0,0,0,0,3.81h8.59a6.15,6.15,0,0,1,6.14,6.13V488l-.05.06a25.92,25.92,0,0,0-6.29,14.52l0,.19h-9l-13.67-13.67V473.66a10,10,0,0,0-10-10H193.57a10,10,0,0,0-9.95,10v12.1l-.07.06A26.2,26.2,0,0,0,175,505.13a1.91,1.91,0,0,0,1.91,1.91h6.66l0,.18a17.66,17.66,0,0,0,34.43,3l.1-.34,7,7a1.9,1.9,0,0,0,1.35.56h22.39a1.91,1.91,0,0,0,1.54-.78l8-11a1.83,1.83,0,0,0,.31-.68l0-.16h0A22.35,22.35,0,0,1,281.15,482.81Zm-93.72-9.15a6.14,6.14,0,0,1,6.14-6.14h28.91a6.15,6.15,0,0,1,6.14,6.14v2H187.43Zm27.38,33.62a13.85,13.85,0,0,1-27.36,0l0-.24h4.73l0,.16a9.19,9.19,0,0,0,17.92,0l0-.16h4.73ZM196.09,507h10.08l-.13.3a5.38,5.38,0,0,1-9.82,0Zm51.83,6.64H227.28l-9.89-9.9a1.93,1.93,0,0,0-1.35-.55H178.89l0-.24a22.24,22.24,0,0,1,7.84-14.91,1.89,1.89,0,0,0,.68-1.45v-7.12h41.19v10.33a1.88,1.88,0,0,0,.55,1.34L244,506a1.9,1.9,0,0,0,1.35.56h7.85Zm29.25-64.95h2.74V459.5h-2.74a5.39,5.39,0,0,1,0-10.77ZM265.3,456h2.88l0,.17a9.16,9.16,0,0,0,4,5.67l.06,0,0,.07c1.93,5,4.57,12,6.2,16.92l.12.24-.26,0h-.05a26.13,26.13,0,0,0-12.67,5l-.34.25Z" transform="translate(-175 -440.22)" fill="#fff"/></svg>