<svg id="Layer_2" data-name="Layer 2" xmlns="http://www.w3.org/2000/svg" viewBox="0 0 138.88 81.79"><title>xe-so</title><path d="M599.23,481.41a20.69,20.69,0,1,0,20.69,20.69A20.71,20.71,0,0,0,599.23,481.41Zm0,37.57a16.88,16.88,0,1,1,16.88-16.88A16.9,16.9,0,0,1,599.23,519Z" transform="translate(-570.07 -441.01)" fill="#fff"/><path d="M599.23,491.51a10.6,10.6,0,1,0,10.59,10.59A10.61,10.61,0,0,0,599.23,491.51Zm0,17.38A6.79,6.79,0,1,1,606,502.1,6.8,6.8,0,0,1,599.23,508.89Z" transform="translate(-570.07 -441.01)" fill="#fff"/><path d="M688.26,481.41a20.49,20.49,0,0,0-5.44.73l-.18.05-2.87-7,3.16-1.3a1.84,1.84,0,0,0,1-1,1.9,1.9,0,0,0,0-1.46l-1.05-2.54h4.76a1.91,1.91,0,0,0,1.9-1.91V452.38a1.9,1.9,0,0,0-1.9-1.9H683a9.13,9.13,0,0,0-6.31,2.52l-.23.21-1.23-3A1.9,1.9,0,0,0,673.5,449a1.79,1.79,0,0,0-.72.15l-3.18,1.3L667.33,445a5.83,5.83,0,0,0-5.21-3.94h-7.83a1.91,1.91,0,0,0,0,3.81h7.8c1.08,0,1.62,1.37,1.65,1.43l0,.11,2.3,5.57-3.3,1.35a1.94,1.94,0,0,0-1,1,1.9,1.9,0,0,0,0,1.46l1.2,2.92h-4.66a1.87,1.87,0,0,0-1.43.65l-11,12.51a9.92,9.92,0,0,0,.62,13.75l.15.14-3.86,4.39-.12-.34a10,10,0,0,0-9.38-6.63h-.95l3.38-7.53a1.91,1.91,0,0,0,.16-.78v-.11h0v-3.85a10,10,0,0,0-10-9.95H601.26a9.9,9.9,0,0,0-9.9,9l0,.43-3.38-3.24a1.92,1.92,0,0,0-1.32-.53h-12a1.9,1.9,0,0,0-1.9,1.9v7.4a1.92,1.92,0,0,0,.58,1.37l4.86,4.71-.14.15a29.07,29.07,0,0,0-7.93,20,1.91,1.91,0,1,0,3.81,0,25.35,25.35,0,1,1,49.61,7.35,1.92,1.92,0,0,0,.14,1.45,1.9,1.9,0,0,0,1.13.93,2.1,2.1,0,0,0,.56.08h8a10,10,0,0,0,9.53-7.08l0-.15h2.28a10.35,10.35,0,0,0,7.79-3.53l20.56-23.38,2.75-1.13,2.85,6.92-.18.09a20.68,20.68,0,1,0,9.35-2.24Zm-98.55-6.86a28.89,28.89,0,0,0-8.61,4.74l-.15.11-4.44-4.3v-4.68h9.34l4.18,4Zm5.41-1.61v-2.05a6.15,6.15,0,0,1,6.14-6.14h24.67a6.15,6.15,0,0,1,6.14,6.14v2.05Zm26.19,10.15a29.73,29.73,0,0,0-7-5.95l-.65-.39H631l-2.88,6.41h-6.79ZM639.43,502a6.14,6.14,0,0,1-6.14,6.14h-5.53l.06-.25a29.35,29.35,0,0,0,.57-5.75,29,29,0,0,0-4.06-14.81l-.18-.32h9.14a6.15,6.15,0,0,1,6.14,6.14ZM683,454.29h2.74v10.76H683a5.38,5.38,0,1,1,0-10.76Zm-34.28,20.07,10.4-11.86h5.35l.82,2-16.16,18.38-.16-.16A6.16,6.16,0,0,1,648.75,474.36Zm22.88.05a1.9,1.9,0,0,0-.71.51l-20.85,23.72a6.57,6.57,0,0,1-4.93,2.22h-1.9v-5.47L669,466.12a1.89,1.89,0,0,0,.34-2L666,456.08l6.47-2.66,1.65,4v.07a9.31,9.31,0,0,0-.26,2.16,9.15,9.15,0,0,0,4.35,7.81l.06,0,1.47,3.57ZM688.26,519a16.88,16.88,0,1,1,16.88-16.88A16.9,16.9,0,0,1,688.26,519Z" transform="translate(-570.07 -441.01)" fill="#fff"/><path d="M688.26,491.51a10.6,10.6,0,1,0,10.59,10.59A10.6,10.6,0,0,0,688.26,491.51Zm0,17.38A6.79,6.79,0,1,1,695,502.1,6.8,6.8,0,0,1,688.26,508.89Z" transform="translate(-570.07 -441.01)" fill="#fff"/></svg>